<svg width="40" height="40" viewBox="0 0 40 40" fill="none" xmlns="http://www.w3.org/2000/svg">
<path d="M15 13.75C14.9971 14.152 15.018 14.5538 15.0625 14.9532L3.37501 30.8907C3.02104 31.3728 2.85163 31.9658 2.89751 32.562C2.94337 33.1583 3.20148 33.7184 3.62501 34.1407L5.85938 36.375C6.28164 36.7985 6.84173 37.0567 7.43803 37.1025C8.03433 37.1484 8.62732 36.979 9.10938 36.625L25.0468 24.9375C25.4463 24.9822 25.8481 25.003 26.25 25C28.5463 25.0003 30.7876 24.2968 32.6718 22.9844C32.7461 22.9317 32.808 22.8633 32.853 22.7842C32.8981 22.7049 32.9252 22.6169 32.9327 22.526C32.9402 22.4353 32.9277 22.3439 32.8961 22.2584C32.8646 22.173 32.8147 22.0955 32.75 22.0313L17.9687 7.25006C17.9046 7.18538 17.8271 7.13552 17.7416 7.10395C17.6561 7.07239 17.5648 7.05991 17.474 7.06734C17.3832 7.07478 17.2951 7.10199 17.216 7.14704C17.1367 7.19211 17.0685 7.25393 17.0156 7.32818C15.7032 9.21251 14.9997 11.4537 15 13.75ZM17.7656 24.0157L14.6406 27.1407C14.4017 27.3717 14.0823 27.5009 13.75 27.5009C13.4176 27.5009 13.0983 27.3717 12.8593 27.1407C12.6246 26.9037 12.493 26.5837 12.493 26.25C12.493 25.9165 12.6246 25.5964 12.8593 25.3594L15.9843 22.2344C16.2272 22.0352 16.5356 21.9333 16.8493 21.9487C17.1632 21.964 17.4601 22.0957 17.6822 22.3178C17.9045 22.54 18.036 22.8369 18.0515 23.1507C18.0668 23.4645 17.965 23.7728 17.7656 24.0157ZM37.4843 13.125C37.6226 15.6314 36.9185 18.1119 35.4843 20.1719C35.4316 20.2462 35.3632 20.308 35.2841 20.353C35.2048 20.3982 35.1168 20.4253 35.026 20.4328C34.9352 20.4403 34.8438 20.4278 34.7585 20.3962C34.673 20.3647 34.5955 20.3148 34.5312 20.25L19.75 5.46881C19.6853 5.40464 19.6355 5.32712 19.6038 5.24165C19.5723 5.15619 19.5598 5.06487 19.5673 4.97407C19.5747 4.88327 19.602 4.79519 19.647 4.71602C19.6921 4.63683 19.7538 4.56846 19.8281 4.51568C21.4716 3.37261 23.3903 2.68878 25.3862 2.53476C27.3822 2.38073 29.3831 2.76209 31.1825 3.63949C32.9818 4.51688 34.5146 5.85853 35.6223 7.52598C36.7301 9.19342 37.373 11.1263 37.4843 13.125Z" fill="#017CFF"/>
</svg>
