<svg width="141" height="27" viewBox="0 0 141 27" fill="none" xmlns="http://www.w3.org/2000/svg">
<path d="M44.3637 9.35226H48.3514C48.2289 8.26613 47.9317 7.30263 47.4594 6.46175C46.9872 5.62088 46.3838 4.92016 45.6492 4.35958C44.9322 3.78147 44.1102 3.34351 43.1832 3.0457C42.2737 2.7479 41.3031 2.599 40.2712 2.599C38.8371 2.599 37.5429 2.85301 36.3885 3.36103C35.2517 3.86906 34.2898 4.56979 33.5027 5.46322C32.7157 6.35665 32.1123 7.40774 31.6926 8.61649C31.2728 9.80773 31.063 11.1041 31.063 12.5056C31.063 13.872 31.2728 15.1507 31.6926 16.3421C32.1123 17.5157 32.7157 18.5406 33.5027 19.4164C34.2898 20.2924 35.2517 20.9843 36.3885 21.4924C37.5429 21.9829 38.8371 22.2282 40.2712 22.2282C41.4256 22.2282 42.4837 22.053 43.4456 21.7026C44.4075 21.3522 45.247 20.8442 45.9641 20.1784C46.6811 19.5128 47.2583 18.707 47.6955 17.761C48.1328 16.815 48.4038 15.7551 48.5088 14.5815H44.5211C44.3637 15.8428 43.9265 16.8588 43.2094 17.6297C42.5099 18.4004 41.5305 18.7858 40.2712 18.7858C39.3443 18.7858 38.5572 18.6106 37.9101 18.2603C37.2629 17.8924 36.7383 17.4106 36.3361 16.815C35.9338 16.2194 35.6365 15.5537 35.444 14.8179C35.2691 14.0646 35.1817 13.2939 35.1817 12.5056C35.1817 11.6822 35.2691 10.8851 35.444 10.1143C35.6365 9.3435 35.9338 8.66029 36.3361 8.06467C36.7383 7.45153 37.2629 6.96978 37.9101 6.61942C38.5572 6.25154 39.3443 6.0676 40.2712 6.0676C40.7784 6.0676 41.2594 6.15519 41.7141 6.33037C42.1863 6.48804 42.606 6.71577 42.9733 7.01358C43.3407 7.31139 43.6467 7.66175 43.8915 8.06467C44.1364 8.45007 44.2938 8.87926 44.3637 9.35226ZM54.2334 15.0282C54.2334 14.4851 54.2859 13.9508 54.3908 13.4252C54.4957 12.8997 54.6706 12.4355 54.9155 12.0325C55.1778 11.6296 55.5189 11.3055 55.9386 11.0602C56.3584 10.7975 56.8831 10.6661 57.5127 10.6661C58.1424 10.6661 58.6671 10.7975 59.0867 11.0602C59.524 11.3055 59.865 11.6296 60.1099 12.0325C60.3722 12.4355 60.5558 12.8997 60.6609 13.4252C60.7658 13.9508 60.8182 14.4851 60.8182 15.0282C60.8182 15.5712 60.7658 16.1055 60.6609 16.6311C60.5558 17.1391 60.3722 17.6034 60.1099 18.0237C59.865 18.4267 59.524 18.7508 59.0867 18.9961C58.6671 19.2412 58.1424 19.3639 57.5127 19.3639C56.8831 19.3639 56.3584 19.2412 55.9386 18.9961C55.5189 18.7508 55.1778 18.4267 54.9155 18.0237C54.6706 17.6034 54.4957 17.1391 54.3908 16.6311C54.2859 16.1055 54.2334 15.5712 54.2334 15.0282ZM50.5081 15.0282C50.5081 16.1143 50.6743 17.0953 51.0066 17.9712C51.3389 18.8471 51.8111 19.6004 52.4232 20.2311C53.0354 20.8442 53.7699 21.3172 54.6269 21.6501C55.4839 21.9829 56.4458 22.1493 57.5127 22.1493C58.5796 22.1493 59.5415 21.9829 60.3985 21.6501C61.273 21.3172 62.0162 20.8442 62.6284 20.2311C63.2405 19.6004 63.7128 18.8471 64.0451 17.9712C64.3773 17.0953 64.5435 16.1143 64.5435 15.0282C64.5435 13.9421 64.3773 12.961 64.0451 12.0851C63.7128 11.1917 63.2405 10.4384 62.6284 9.82525C62.0162 9.19459 61.273 8.71285 60.3985 8.38C59.5415 8.02963 58.5796 7.85446 57.5127 7.85446C56.4458 7.85446 55.4839 8.02963 54.6269 8.38C53.7699 8.71285 53.0354 9.19459 52.4232 9.82525C51.8111 10.4384 51.3389 11.1917 51.0066 12.0851C50.6743 12.961 50.5081 13.9421 50.5081 15.0282ZM79.6893 21.8077V8.22233H75.964V15.3435C75.964 16.7274 75.7367 17.7259 75.2819 18.3391C74.8272 18.9347 74.0927 19.2325 73.0783 19.2325C72.1863 19.2325 71.5654 18.961 71.2156 18.4179C70.8658 17.8574 70.6909 17.0164 70.6909 15.8953V8.22233H66.9656V16.5785C66.9656 17.4194 67.0356 18.1902 67.1756 18.8909C67.333 19.5742 67.5953 20.161 67.9626 20.6515C68.3299 21.1245 68.8283 21.4924 69.4579 21.7551C70.1051 22.0179 70.9271 22.1493 71.924 22.1493C72.711 22.1493 73.4806 21.9742 74.2326 21.6238C74.9846 21.2734 75.5968 20.704 76.069 19.9157H76.1477V21.8077H79.6893ZM82.5167 8.22233V21.8077H86.242V15.6851C86.242 15.0719 86.3032 14.5026 86.4256 13.9771C86.548 13.4515 86.7492 12.996 87.029 12.6107C87.3263 12.2077 87.7111 11.8924 88.1833 11.6646C88.6556 11.4369 89.2327 11.3231 89.9148 11.3231C90.1422 11.3231 90.3783 11.3406 90.6231 11.3756C90.8679 11.3932 91.0779 11.4194 91.2528 11.4544V7.98584C90.9554 7.89825 90.6843 7.85446 90.4394 7.85446C89.9673 7.85446 89.5126 7.92452 89.0753 8.06467C88.6381 8.20481 88.2271 8.40627 87.8422 8.66905C87.4575 8.9143 87.1165 9.22087 86.8192 9.58875C86.5218 9.93912 86.2857 10.3245 86.1108 10.745H86.0584V8.22233H82.5167ZM95.599 17.3931H92.0574C92.0924 18.304 92.2935 19.066 92.6608 19.6793C93.0456 20.2748 93.5265 20.7566 94.1037 21.1245C94.6984 21.4924 95.3716 21.7551 96.1237 21.9128C96.8758 22.0704 97.6453 22.1493 98.4324 22.1493C99.2019 22.1493 99.9539 22.0704 100.688 21.9128C101.441 21.7727 102.105 21.5187 102.682 21.1508C103.259 20.7828 103.723 20.3011 104.072 19.7055C104.44 19.0923 104.624 18.3391 104.624 17.4456C104.624 16.815 104.502 16.2894 104.256 15.869C104.011 15.431 103.688 15.0719 103.286 14.7916C102.883 14.4938 102.42 14.2574 101.895 14.0822C101.388 13.907 100.863 13.7581 100.321 13.6354C99.7965 13.5129 99.2805 13.399 98.7734 13.2939C98.2662 13.1888 97.8115 13.0749 97.4092 12.9522C97.0245 12.8121 96.7096 12.6369 96.4648 12.4268C96.2199 12.2165 96.0975 11.9449 96.0975 11.6121C96.0975 11.3318 96.1675 11.1128 96.3073 10.9551C96.4473 10.78 96.6135 10.6486 96.8058 10.561C97.0156 10.4734 97.2431 10.4209 97.4879 10.4033C97.7328 10.3683 97.9601 10.3508 98.17 10.3508C98.8346 10.3508 99.4118 10.4822 99.9015 10.745C100.391 10.9902 100.662 11.472 100.715 12.1902H104.256C104.186 11.3493 103.968 10.6573 103.601 10.1143C103.251 9.55372 102.805 9.10701 102.263 8.77416C101.72 8.44131 101.099 8.20481 100.4 8.06467C99.7179 7.92452 99.0095 7.85446 98.2749 7.85446C97.5403 7.85446 96.8233 7.92452 96.1237 8.06467C95.4241 8.18729 94.7945 8.41504 94.2348 8.74788C93.6752 9.0632 93.2205 9.50116 92.8707 10.0617C92.5384 10.6223 92.3722 11.3406 92.3722 12.2165C92.3722 12.8121 92.4946 13.3201 92.7395 13.7406C92.9844 14.1435 93.3079 14.4851 93.7101 14.7654C94.1124 15.0282 94.5671 15.2471 95.0743 15.4223C95.599 15.5799 96.1324 15.7201 96.6746 15.8428C98.0039 16.123 99.0358 16.4033 99.7703 16.6836C100.522 16.9639 100.898 17.3844 100.898 17.9449C100.898 18.2778 100.82 18.558 100.662 18.7858C100.505 18.9961 100.304 19.1712 100.059 19.3113C99.8315 19.434 99.5692 19.5303 99.2718 19.6004C98.992 19.653 98.7209 19.6793 98.4586 19.6793C98.0913 19.6793 97.7328 19.6354 97.383 19.5479C97.0507 19.4602 96.7533 19.3289 96.491 19.1537C96.2286 18.961 96.0101 18.7245 95.8352 18.4442C95.6777 18.1464 95.599 17.796 95.599 17.3931ZM115.934 13.5566H109.873C109.891 13.2939 109.944 12.996 110.031 12.6632C110.135 12.3304 110.302 12.015 110.529 11.7172C110.774 11.4194 111.089 11.1742 111.474 10.9814C111.876 10.7712 112.375 10.6661 112.969 10.6661C113.878 10.6661 114.552 10.9114 114.99 11.4019C115.444 11.8924 115.759 12.6107 115.934 13.5566ZM109.873 15.9216H119.659C119.729 14.8705 119.641 13.8631 119.397 12.8997C119.152 11.9362 118.75 11.0778 118.19 10.3245C117.648 9.57124 116.948 8.97562 116.091 8.53766C115.234 8.08219 114.229 7.85446 113.074 7.85446C112.042 7.85446 111.097 8.03839 110.241 8.40627C109.401 8.77416 108.676 9.28218 108.063 9.93036C107.451 10.561 106.978 11.3142 106.647 12.1902C106.314 13.0661 106.148 14.0121 106.148 15.0282C106.148 16.0792 106.306 17.0427 106.621 17.9187C106.953 18.7946 107.416 19.5479 108.011 20.1784C108.605 20.8091 109.331 21.2997 110.188 21.6501C111.046 21.9829 112.007 22.1493 113.074 22.1493C114.613 22.1493 115.925 21.799 117.009 21.0982C118.094 20.3975 118.898 19.2325 119.423 17.6034H116.143C116.021 18.0237 115.688 18.4267 115.146 18.812C114.604 19.18 113.957 19.3639 113.205 19.3639C112.156 19.3639 111.352 19.0923 110.792 18.5493C110.232 18.0062 109.926 17.1304 109.873 15.9216ZM121.973 3.0457V21.8077H125.698V3.0457H121.973ZM135.321 23.4895L140.988 8.22233H137.132L134.168 17.5245H134.115L131.045 8.22233H127.084L131.833 20.9669C131.938 21.2296 131.989 21.5099 131.989 21.8077C131.989 22.2106 131.867 22.5785 131.622 22.9114C131.395 23.2442 131.037 23.4369 130.547 23.4895C130.179 23.5069 129.812 23.4982 129.445 23.4632C129.078 23.4281 128.719 23.3931 128.369 23.358V26.4325C128.755 26.4676 129.13 26.4939 129.498 26.5113C129.883 26.5464 130.267 26.5638 130.652 26.5638C131.928 26.5638 132.926 26.3274 133.643 25.8544C134.359 25.3815 134.919 24.5931 135.321 23.4895Z" fill="#333B4A"/>
<path d="M26.956 12.4615L10.627 23.2535V1.66953L26.956 12.4615Z" fill="#017CFF"/>
<path d="M17.6249 12.4615L1.2959 23.2535V1.66953L17.6249 12.4615Z" fill="#E48D8B"/>
</svg>
