<svg width="116" height="20" viewBox="0 0 116 20" fill="none" xmlns="http://www.w3.org/2000/svg">
<g clip-path="url(#clip0_7_805)">
<path d="M9.07088 0.833047C9.41462 0.0165876 10.5854 0.0165887 10.9291 0.833049L12.9579 5.65194C13.1029 5.99614 13.4306 6.23131 13.8067 6.2611L19.0727 6.67818C19.9649 6.74885 20.3267 7.84884 19.6469 8.4241L15.6348 11.8194C15.3482 12.0619 15.223 12.4425 15.3106 12.805L16.5363 17.8817C16.744 18.7418 15.7969 19.4217 15.033 18.9608L10.5245 16.2403C10.2025 16.0459 9.7975 16.0459 9.47548 16.2403L4.96699 18.9608C4.20311 19.4217 3.25596 18.7418 3.46363 17.8817L4.68942 12.805C4.77698 12.4425 4.65182 12.0619 4.36526 11.8194L0.353062 8.4241C-0.326718 7.84884 0.035068 6.74885 0.927291 6.67818L6.19336 6.2611C6.5695 6.23131 6.89716 5.99614 7.04207 5.65194L9.07088 0.833047Z" fill="#E48D8B"/>
<path d="M33.0709 0.833047C33.4146 0.0165876 34.5854 0.0165887 34.9291 0.833049L36.9579 5.65194C37.1029 5.99614 37.4306 6.23131 37.8067 6.2611L43.0727 6.67818C43.9649 6.74885 44.3267 7.84884 43.6469 8.4241L39.6348 11.8194C39.3482 12.0619 39.223 12.4425 39.3106 12.805L40.5363 17.8817C40.744 18.7418 39.7969 19.4217 39.033 18.9608L34.5245 16.2403C34.2025 16.0459 33.7975 16.0459 33.4755 16.2403L28.967 18.9608C28.2031 19.4217 27.256 18.7418 27.4636 17.8817L28.6894 12.805C28.777 12.4425 28.6518 12.0619 28.3653 11.8194L24.3531 8.4241C23.6733 7.84884 24.0351 6.74885 24.9273 6.67818L30.1934 6.2611C30.5695 6.23131 30.8972 5.99614 31.0421 5.65194L33.0709 0.833047Z" fill="#E48D8B"/>
<path d="M57.0709 0.833047C57.4146 0.0165876 58.5854 0.0165887 58.9291 0.833049L60.9579 5.65194C61.1029 5.99614 61.4305 6.23131 61.8066 6.2611L67.0726 6.67818C67.9649 6.74885 68.3266 7.84884 67.6469 8.4241L63.6348 11.8194C63.3482 12.0619 63.223 12.4425 63.3105 12.805L64.5363 17.8817C64.744 18.7418 63.7969 19.4217 63.033 18.9608L58.5245 16.2403C58.2025 16.0459 57.7975 16.0459 57.4755 16.2403L52.967 18.9608C52.2031 19.4217 51.2559 18.7418 51.4636 17.8817L52.6894 12.805C52.777 12.4425 52.6518 12.0619 52.3652 11.8194L48.353 8.4241C47.6733 7.84884 48.035 6.74885 48.9273 6.67818L54.1933 6.2611C54.5695 6.23131 54.8971 5.99614 55.042 5.65194L57.0709 0.833047Z" fill="#E48D8B"/>
<path d="M81.0709 0.833047C81.4146 0.0165876 82.5854 0.0165887 82.9291 0.833049L84.9579 5.65194C85.1029 5.99614 85.4305 6.23131 85.8066 6.2611L91.0726 6.67818C91.9649 6.74885 92.3266 7.84884 91.6469 8.4241L87.6348 11.8194C87.3482 12.0619 87.223 12.4425 87.3105 12.805L88.5363 17.8817C88.744 18.7418 87.7969 19.4217 87.033 18.9608L82.5245 16.2403C82.2025 16.0459 81.7975 16.0459 81.4755 16.2403L76.967 18.9608C76.2031 19.4217 75.2559 18.7418 75.4636 17.8817L76.6894 12.805C76.777 12.4425 76.6518 12.0619 76.3652 11.8194L72.353 8.4241C71.6733 7.84884 72.035 6.74885 72.9273 6.67818L78.1933 6.2611C78.5695 6.23131 78.8971 5.99614 79.042 5.65194L81.0709 0.833047Z" fill="#E48D8B"/>
<path d="M105.071 0.833047C105.414 0.0165876 106.585 0.0165887 106.929 0.833049L108.958 5.65194C109.103 5.99614 109.43 6.23131 109.806 6.2611L115.072 6.67818C115.965 6.74885 116.326 7.84884 115.647 8.4241L111.635 11.8194C111.348 12.0619 111.223 12.4425 111.31 12.805L112.536 17.8817C112.744 18.7418 111.797 19.4217 111.033 18.9608L106.524 16.2403C106.202 16.0459 105.797 16.0459 105.475 16.2403L100.967 18.9608C100.203 19.4217 99.2555 18.7418 99.4632 17.8817L100.689 12.805C100.777 12.4425 100.652 12.0619 100.365 11.8194L96.3526 8.4241C95.6728 7.84884 96.0346 6.74885 96.9268 6.67818L102.193 6.2611C102.569 6.23131 102.897 5.99614 103.042 5.65194L105.071 0.833047Z" fill="#E48D8B"/>
</g>
<defs>
<clipPath id="clip0_7_805">
<rect width="116" height="20" fill="white"/>
</clipPath>
</defs>
</svg>
